# xmcd
#
# Track frame offsets:
#	150
#	13072
#	26553
#	45566
#	60870
#	73270
#	92313
#	107651
#	125040
#	142794
#	161227
#
# Disc length: 2418 seconds
# Revision: 0
# Processed by: cddbd v1.5.2PL0 Copyright (c) Steve Scherf et al.
# Submitted via: dBpowerAMP V12.0
#
DISCID=8b09700b
DTITLE=Cory Piatt - Daydreams
DYEAR=2012
DGENRE=Country
TTITLE0=Crossfire
TTITLE1=Ashley's Reel
TTITLE2=Good at Losing You
TTITLE3=Land Rush
TTITLE4=Poor Boy
TTITLE5=Ride the Wild Turkey
TTITLE6=Sad Songs
TTITLE7=Tell Me Somethin'
TTITLE8=That's Just Jessie
TTITLE9=The Beauty of Idleness
TTITLE10=A Universal Truth
EXTD=
EXTT0=
EXTT1=
EXTT2=
EXTT3=
EXTT4=
EXTT5=
EXTT6=
EXTT7=
EXTT8=
EXTT9=
EXTT10=
PLAYORDER=
